<?xml version="1.0" encoding="utf-8"?>
<!-- Generator: Adobe Illustrator 15.1.0, SVG Export Plug-In . SVG Version: 6.00 Build 0)  -->
<!DOCTYPE svg PUBLIC "-//W3C//DTD SVG 1.1//EN" "http://www.w3.org/Graphics/SVG/1.1/DTD/svg11.dtd">
<svg version="1.1" id="Layer_1" xmlns="http://www.w3.org/2000/svg" xmlns:xlink="http://www.w3.org/1999/xlink" x="0px" y="0px"
	 width="595px" height="605.812px" viewBox="0 0 595 605.812" enable-background="new 0 0 595 605.812" xml:space="preserve">
<rect x="49.866" y="74.132" fill="#FFFFFF" width="493.863" height="457.55"/>
<path fill="#98BF3D" d="M593.597,165.856V439.09c0,91.662-74.197,166.723-163.228,166.723H163.235C73.33,605.812,0,530.752,0,439.09
	V165.856C0,74.197,73.33,0,163.228,0h267.127C519.386,0,593.597,74.197,593.597,165.856z M483.609,304.652
	c0-103.005-82.04-188.554-183.318-188.554c-90.778,0-166.73,68.091-181.571,157.999H54.12l103.005,182.444l104.752-182.444h-57.608
	c13.093-41.901,51.506-72.449,96.006-72.449c55.009,0,101.265,46.263,101.265,103.005c0,57.608-46.256,103.012-101.265,103.012
	v84.668C401.555,492.326,483.609,408.531,483.609,304.652z"/>
</svg>
