<?xml version="1.0" encoding="utf-8"?>
<!-- Generator: Adobe Illustrator 15.1.0, SVG Export Plug-In  -->
<!DOCTYPE svg PUBLIC "-//W3C//DTD SVG 1.1//EN" "http://www.w3.org/Graphics/SVG/1.1/DTD/svg11.dtd" [
	<!ENTITY ns_flows "http://ns.adobe.com/Flows/1.0/">
]>
<svg version="1.1"
	 xmlns="http://www.w3.org/2000/svg" xmlns:xlink="http://www.w3.org/1999/xlink" xmlns:a="http://ns.adobe.com/AdobeSVGViewerExtensions/3.0/"
	 x="0px" y="0px" width="1024px" height="768px" viewBox="-344.104 -226.131 1024 768"
	 overflow="visible" enable-background="new -344.104 -226.131 1024 768" xml:space="preserve">
<defs>
</defs>
<polygon fill="#FFFFFF" points="277.586,349.552 65.441,331.613 65.441,316.411 66.097,248.805 102.784,248.805 120.83,234.025 
	120.315,137.884 88.939,109.1 0,108.493 0,0 92.72,0 92.72,36.22 383.555,36.662 383.555,0 649.01,0.007 649.01,319.639 
	346.439,319.639 346.439,294.678 320.031,279.375 296.155,280.136 277.586,303.937 "/>
<line fill="none" stroke="#000000" x1="313.188" y1="83.294" x2="313.251" y2="100.18"/>
<line fill="none" stroke="#000000" x1="321.435" y1="83.294" x2="321.497" y2="100.18"/>
<line fill="none" stroke="#000000" x1="329.681" y1="83.294" x2="329.743" y2="100.18"/>
<line fill="none" stroke="#000000" x1="337.927" y1="83.294" x2="337.989" y2="100.18"/>
<line fill="none" stroke="#000000" x1="346.173" y1="83.294" x2="346.235" y2="100.18"/>
<line fill="none" stroke="#000000" x1="354.419" y1="83.294" x2="354.481" y2="100.18"/>
<line fill="none" stroke="#000000" x1="362.665" y1="83.294" x2="362.728" y2="100.18"/>
<line fill="none" stroke="#000000" x1="370.911" y1="83.294" x2="370.974" y2="100.18"/>
<line fill="none" stroke="#000000" x1="379.157" y1="83.294" x2="379.22" y2="100.18"/>
<line fill="none" stroke="#000000" x1="422.937" y1="83.294" x2="422.999" y2="100.18"/>
<line fill="none" stroke="#000000" x1="431.183" y1="83.294" x2="431.245" y2="100.18"/>
<line fill="none" stroke="#000000" x1="439.429" y1="83.294" x2="439.491" y2="100.18"/>
<line fill="none" stroke="#000000" x1="447.675" y1="83.294" x2="447.737" y2="100.18"/>
<line fill="none" stroke="#000000" x1="455.921" y1="83.294" x2="455.983" y2="100.18"/>
<line fill="none" stroke="#000000" x1="464.167" y1="83.294" x2="464.229" y2="100.18"/>
<line fill="none" stroke="#000000" x1="472.413" y1="83.294" x2="472.476" y2="100.18"/>
<line fill="none" stroke="#000000" x1="480.659" y1="83.294" x2="480.722" y2="100.18"/>
<line fill="none" stroke="#000000" x1="488.905" y1="83.01" x2="488.968" y2="99.896"/>
<line fill="none" stroke="#000000" x1="286.852" y1="99.936" x2="515.439" y2="99.936"/>
<line fill="none" stroke="#000000" x1="312.701" y1="83.294" x2="387.568" y2="83.294"/>
<rect x="515.439" y="173.532" width="9.838" height="9.959"/>
<rect x="277.014" y="172.864" width="9.838" height="9.953"/>
<rect x="453.447" y="234.854" width="9.604" height="9.592"/>
<rect x="414.645" y="234.854" width="9.602" height="9.592"/>
<rect x="377.969" y="234.854" width="9.6" height="9.592"/>
<rect x="338.646" y="234.854" width="9.6" height="9.592"/>
<polygon points="525.277,204.889 515.498,204.485 515.498,207.549 513.189,210.678 519.928,217.508 519.928,217.504 525.277,211.43 
	"/>
<polygon points="282.367,216.831 289.1,210.004 286.793,206.87 286.791,203.805 277.014,204.221 277.014,210.76 277.018,210.762 
	282.363,216.836 "/>
<polygon points="492.617,231.344 489.781,234.854 482.012,234.854 482.012,244.446 494.281,244.442 499.262,238.54 "/>
<polygon points="320.283,244.44 320.283,234.848 312.51,234.848 309.678,231.338 303.033,238.536 308.016,244.446 "/>
<rect x="515.439" y="132.957" width="9.838" height="9.948"/>
<rect x="277.014" y="133.631" width="9.838" height="9.944"/>
<rect x="453.447" y="72.006" width="9.604" height="9.594"/>
<rect x="414.645" y="72.006" width="9.602" height="9.594"/>
<rect x="377.969" y="72.006" width="9.6" height="9.594"/>
<rect x="338.646" y="72.006" width="9.6" height="9.594"/>
<polygon points="525.277,111.559 525.277,105.018 519.928,98.945 519.922,98.949 513.195,105.771 515.498,108.908 515.498,111.969 
	"/>
<polygon points="277.014,112.229 286.793,112.639 286.793,109.58 289.1,106.447 282.365,99.613 282.361,99.619 277.014,105.691 "/>
<polygon points="492.617,85.107 499.256,77.908 494.275,72.002 482.012,72.002 482.012,81.6 489.781,81.6 "/>
<polygon points="320.283,81.706 320.283,72.108 308.016,72.11 303.033,78.017 309.674,85.21 309.674,85.208 312.51,81.706 "/>
<line fill="none" stroke="#000000" stroke-width="5.5598" x1="570.701" y1="6" x2="570.701" y2="42.402"/>
<rect x="343.446" y="3.125" fill="#FFFFFF" stroke="#FFFFFF" stroke-width="6" width="31.796" height="31.796"/>
<line fill="none" stroke="#000000" stroke-width="1.5" x1="342.135" y1="35.96" x2="376.684" y2="1.388"/>
<line fill="none" stroke="#000000" stroke-width="1.5" x1="376.684" y1="35.96" x2="342.135" y2="1.388"/>
<line fill="none" stroke="#000000" stroke-width="1.5" x1="342.135" y1="36.636" x2="342.135" y2="0.938"/>
<line fill="none" stroke="#000000" stroke-width="1.5" x1="376.684" y1="36.636" x2="376.684" y2="0.938"/>
<line fill="none" stroke="#000000" stroke-width="1.5" x1="377.258" y1="1.388" x2="341.56" y2="1.388"/>
<path fill="none" stroke="#000000" stroke-width="0.4534" d="M572.885,32.514c6.896,0,12.485,4.782,12.485,10.681"/>
<line fill="none" stroke="#000000" stroke-width="0.9481" x1="638.596" y1="6.001" x2="638.596" y2="42.015"/>
<line fill="none" stroke="#000000" stroke-width="0.9481" x1="629.949" y1="6.001" x2="629.949" y2="42.015"/>
<line fill="none" stroke="#000000" stroke-width="0.9481" x1="621.305" y1="6.001" x2="621.305" y2="42.015"/>
<line fill="none" stroke="#000000" stroke-width="0.9481" x1="612.658" y1="6.001" x2="612.658" y2="42.015"/>
<line fill="none" stroke="#000000" stroke-width="0.9481" x1="604.014" y1="6.001" x2="604.014" y2="42.015"/>
<line fill="none" stroke="#000000" stroke-width="1.2521" x1="585.37" y1="42.402" x2="643.01" y2="42.402"/>
<line fill="none" stroke="#000000" stroke-width="0.9259" x1="595.336" y1="6.001" x2="595.336" y2="42.015"/>
<line fill="none" stroke="#000000" stroke-width="1.0967" x1="595.336" y1="21.973" x2="643.01" y2="21.973"/>
<line fill="none" stroke="#000000" x1="414.645" y1="83.294" x2="489.068" y2="83.294"/>
<line fill="none" stroke="#000000" x1="313.188" y1="233.157" x2="313.251" y2="216.27"/>
<line fill="none" stroke="#000000" x1="321.435" y1="233.157" x2="321.497" y2="216.27"/>
<line fill="none" stroke="#000000" x1="329.681" y1="233.157" x2="329.743" y2="216.27"/>
<line fill="none" stroke="#000000" x1="337.927" y1="233.157" x2="337.989" y2="216.27"/>
<line fill="none" stroke="#000000" x1="346.173" y1="233.157" x2="346.235" y2="216.27"/>
<line fill="none" stroke="#000000" x1="354.419" y1="233.157" x2="354.481" y2="216.27"/>
<line fill="none" stroke="#000000" x1="362.665" y1="233.157" x2="362.728" y2="216.27"/>
<line fill="none" stroke="#000000" x1="370.911" y1="233.157" x2="370.974" y2="216.27"/>
<line fill="none" stroke="#000000" x1="379.157" y1="233.157" x2="379.22" y2="216.27"/>
<line fill="none" stroke="#000000" x1="422.937" y1="233.157" x2="422.999" y2="216.27"/>
<line fill="none" stroke="#000000" x1="431.183" y1="233.157" x2="431.245" y2="216.27"/>
<line fill="none" stroke="#000000" x1="439.429" y1="233.157" x2="439.491" y2="216.27"/>
<line fill="none" stroke="#000000" x1="447.675" y1="233.157" x2="447.737" y2="216.27"/>
<line fill="none" stroke="#000000" x1="455.921" y1="233.157" x2="455.983" y2="216.27"/>
<line fill="none" stroke="#000000" x1="464.167" y1="233.157" x2="464.229" y2="216.27"/>
<line fill="none" stroke="#000000" x1="472.413" y1="233.157" x2="472.476" y2="216.27"/>
<line fill="none" stroke="#000000" x1="480.659" y1="233.157" x2="480.722" y2="216.27"/>
<line fill="none" stroke="#000000" x1="488.905" y1="233.157" x2="488.968" y2="216.27"/>
<line fill="none" stroke="#000000" x1="286.852" y1="216.514" x2="515.439" y2="216.514"/>
<line fill="none" stroke="#000000" x1="312.701" y1="233.157" x2="387.568" y2="233.157"/>
<line fill="none" stroke="#000000" stroke-width="1.0024" x1="414.645" y1="233.157" x2="489.425" y2="233.157"/>
</svg>
