<?xml version="1.0" encoding="utf-8"?>
<!-- Generator: Adobe Illustrator 15.1.0, SVG Export Plug-In  -->
<!DOCTYPE svg PUBLIC "-//W3C//DTD SVG 1.1//EN" "http://www.w3.org/Graphics/SVG/1.1/DTD/svg11.dtd" [
	<!ENTITY ns_flows "http://ns.adobe.com/Flows/1.0/">
]>
<svg version="1.1"
	 xmlns="http://www.w3.org/2000/svg" xmlns:xlink="http://www.w3.org/1999/xlink" xmlns:a="http://ns.adobe.com/AdobeSVGViewerExtensions/3.0/"
	 x="0px" y="0px" width="1024px" height="768px" viewBox="-343.604 -87.042 1024 768"
	 overflow="visible" enable-background="new -343.604 -87.042 1024 768" xml:space="preserve">
<defs>
</defs>
<polyline fill="#FFFFFF" stroke="#000000" stroke-miterlimit="10" points="646.51,3.833 646.51,455.728 349.939,455.728 
	349.939,432.038 321.293,415.438 295.154,416.271 275.086,441.993 275.086,455.728 275.086,485.376 68.941,467.944 68.941,455.499 
	69.568,390.894 104.355,390.894 124.338,374.528 123.809,275.647 90.615,245.196 3.5,244.602 3.5,142.088 90.22,142.088 
	90.22,178.304 387.055,178.754 387.055,142.088 551.887,142.088 551.887,184.883 622.129,184.883 622.527,142.229 577.41,142.254 
	577.252,3.504 649.439,3.602 "/>
<path fill="#FFFFFF" stroke="#000000" stroke-miterlimit="10" d="M278.086,488.641L65.941,470.701v-15.202l0.656-67.605h36.687
	l18.046-14.779l-0.515-96.142l-31.376-28.785L0.5,247.582V139.088h92.72v36.22l290.835,0.442v-36.662h170.832v42.795h64.271
	l0.342-36.652l-45.086,0.025L574.249,0.5l75.194,0.102l-0.004,3.23h0.07v454.895h-302.57v-24.961l-26.408-15.303l-23.877,0.761
	l-18.568,23.801V488.641z M71.941,465.188l200.145,16.924v-41.15l21.567-27.645l28.401-0.903l30.885,17.896v22.418h290.57V6.594
	l-63.254-0.086l0.15,132.745l45.149-0.026l-0.455,48.656h-76.214v-42.795H390.055v36.67L87.22,181.299v-36.211H6.5v96.534
	l85.292,0.581l35.01,32.118l0.544,101.621l-21.918,17.951H72.54l-0.598,61.635V465.188z"/>
<path fill="#FFFFFF" stroke="#000000" stroke-miterlimit="10" d="M578.576,323.394c14.584,0,26.449-11.883,26.449-26.491
	c0-14.581-11.865-26.451-26.449-26.451c-14.59,0-26.455,11.87-26.455,26.451C552.121,311.511,563.986,323.394,578.576,323.394"/>
<line fill="#FFFFFF" stroke="#000000" stroke-miterlimit="10" x1="391.502" y1="279.282" x2="391.502" y2="315.755"/>
<line fill="#FFFFFF" stroke="#000000" stroke-miterlimit="10" x1="382.854" y1="279.282" x2="382.854" y2="315.755"/>
<line fill="#FFFFFF" stroke="#000000" stroke-miterlimit="10" x1="374.209" y1="279.282" x2="374.209" y2="315.755"/>
<line fill="#FFFFFF" stroke="#000000" stroke-miterlimit="10" x1="365.562" y1="279.282" x2="365.562" y2="315.755"/>
<line fill="#FFFFFF" stroke="#000000" stroke-miterlimit="10" x1="356.918" y1="279.282" x2="356.918" y2="315.755"/>
<line fill="#FFFFFF" stroke="#000000" stroke-miterlimit="10" x1="348.271" y1="279.282" x2="348.271" y2="315.755"/>
<line fill="#FFFFFF" stroke="#000000" stroke-miterlimit="10" x1="339.627" y1="279.282" x2="339.627" y2="315.755"/>
<line fill="#FFFFFF" stroke="#000000" stroke-miterlimit="10" x1="322.672" y1="278.466" x2="322.734" y2="316.229"/>
<line fill="#FFFFFF" stroke="#000000" stroke-miterlimit="10" x1="322.49" y1="297.44" x2="405.211" y2="297.44"/>
<line fill="#FFFFFF" stroke="#000000" stroke-miterlimit="10" x1="322.561" y1="279.054" x2="405.277" y2="279.054"/>
<line fill="#FFFFFF" stroke="#000000" stroke-miterlimit="10" x1="322.377" y1="315.562" x2="405.094" y2="315.562"/>
<line fill="#FFFFFF" stroke="#000000" stroke-miterlimit="10" x1="330.949" y1="278.591" x2="330.949" y2="315.979"/>
<line fill="#FFFFFF" stroke="#000000" stroke-miterlimit="10" x1="551.231" y1="138.97" x2="551.294" y2="181.637"/>
<line fill="#FFFFFF" stroke="#000000" stroke-miterlimit="10" x1="534.714" y1="138.97" x2="534.776" y2="181.637"/>
<line fill="#FFFFFF" stroke="#000000" stroke-miterlimit="10" x1="513.499" y1="138.97" x2="513.562" y2="181.637"/>
<line fill="#FFFFFF" stroke="#000000" stroke-miterlimit="10" x1="543.082" y1="138.97" x2="543.145" y2="181.637"/>
<line fill="#FFFFFF" stroke="#000000" stroke-miterlimit="10" x1="526.016" y1="181.637" x2="554.871" y2="181.637"/>
<rect x="515.939" y="312.62" fill="#FFFFFF" stroke="#000000" stroke-miterlimit="10" width="9.838" height="9.959"/>
<rect x="277.514" y="311.952" fill="#FFFFFF" stroke="#000000" stroke-miterlimit="10" width="9.838" height="9.953"/>
<rect x="453.947" y="373.942" fill="#FFFFFF" stroke="#000000" stroke-miterlimit="10" width="9.604" height="9.592"/>
<rect x="415.145" y="373.942" fill="#FFFFFF" stroke="#000000" stroke-miterlimit="10" width="9.602" height="9.592"/>
<rect x="378.469" y="373.942" fill="#FFFFFF" stroke="#000000" stroke-miterlimit="10" width="9.6" height="9.592"/>
<rect x="339.146" y="373.942" fill="#FFFFFF" stroke="#000000" stroke-miterlimit="10" width="9.6" height="9.592"/>
<polygon fill="#FFFFFF" stroke="#000000" stroke-miterlimit="10" points="525.777,343.978 515.998,343.573 515.998,346.638 
	513.689,349.767 520.428,356.597 520.428,356.593 525.777,350.519 "/>
<polygon fill="#FFFFFF" stroke="#000000" stroke-miterlimit="10" points="282.867,355.919 289.6,349.093 287.293,345.958 
	287.291,342.894 277.514,343.31 277.514,349.849 277.518,349.851 282.863,355.925 "/>
<polygon fill="#FFFFFF" stroke="#000000" stroke-miterlimit="10" points="493.117,370.433 490.281,373.942 482.512,373.942 
	482.512,383.534 494.781,383.53 499.762,377.628 "/>
<rect x="515.939" y="272.045" fill="#FFFFFF" stroke="#000000" stroke-miterlimit="10" width="9.838" height="9.948"/>
<rect x="277.514" y="272.719" fill="#FFFFFF" stroke="#000000" stroke-miterlimit="10" width="9.838" height="9.944"/>
<rect x="453.947" y="211.094" fill="#FFFFFF" stroke="#000000" stroke-miterlimit="10" width="9.604" height="9.594"/>
<rect x="415.145" y="211.094" fill="#FFFFFF" stroke="#000000" stroke-miterlimit="10" width="9.602" height="9.594"/>
<rect x="378.469" y="211.094" fill="#FFFFFF" stroke="#000000" stroke-miterlimit="10" width="9.6" height="9.594"/>
<rect x="339.146" y="211.094" fill="#FFFFFF" stroke="#000000" stroke-miterlimit="10" width="9.6" height="9.594"/>
<polygon fill="#FFFFFF" stroke="#000000" stroke-miterlimit="10" points="525.777,250.647 525.777,244.106 520.428,238.034 
	520.422,238.038 513.695,244.86 515.998,247.997 515.998,251.057 "/>
<polygon fill="#FFFFFF" stroke="#000000" stroke-miterlimit="10" points="277.514,251.317 287.293,251.727 287.293,248.668 
	289.6,245.536 282.865,238.702 282.861,238.708 277.514,244.78 "/>
<polygon fill="#FFFFFF" stroke="#000000" stroke-miterlimit="10" points="493.117,224.196 499.756,216.997 494.775,211.09 
	482.512,211.09 482.512,220.688 490.281,220.688 "/>
<polygon fill="#FFFFFF" stroke="#000000" stroke-miterlimit="10" points="320.783,221.362 320.783,211.764 308.516,211.766 
	303.533,217.672 310.174,224.866 310.174,224.864 313.01,221.362 "/>
<path fill="#FFFFFF" stroke="#000000" stroke-miterlimit="10" d="M578.576,326.394c-16.241,0-29.455-13.229-29.455-29.491
	c0-16.239,13.214-29.451,29.455-29.451c16.238,0,29.449,13.212,29.449,29.451C608.025,313.164,594.814,326.394,578.576,326.394z
	 M578.576,273.452c-12.934,0-23.455,10.52-23.455,23.451c0,12.953,10.521,23.491,23.455,23.491c12.93,0,23.449-10.538,23.449-23.491
	C602.025,283.972,591.506,273.452,578.576,273.452z"/>
<line fill="#FFFFFF" stroke="#000000" stroke-miterlimit="10" x1="561.227" y1="314.329" x2="596.025" y2="279.505"/>
<line fill="#FFFFFF" stroke="#000000" stroke-miterlimit="10" x1="596.025" y1="314.329" x2="561.227" y2="279.505"/>
<path fill="#FFFFFF" stroke="#000000" stroke-miterlimit="10" d="M513.53,170.81c6.896,0,12.485,4.782,12.485,10.681"/>
<rect x="343.946" y="142.213" fill="#FFFFFF" stroke="#000000" stroke-miterlimit="10" width="31.796" height="31.796"/>
<line fill="#FFFFFF" stroke="#000000" stroke-miterlimit="10" x1="342.635" y1="175.048" x2="377.184" y2="140.476"/>
<line fill="#FFFFFF" stroke="#000000" stroke-miterlimit="10" x1="377.184" y1="175.048" x2="342.635" y2="140.476"/>
<line fill="#FFFFFF" stroke="#000000" stroke-miterlimit="10" x1="342.635" y1="175.725" x2="342.635" y2="140.027"/>
<line fill="#FFFFFF" stroke="#000000" stroke-miterlimit="10" x1="377.184" y1="175.725" x2="377.184" y2="140.027"/>
<line fill="#FFFFFF" stroke="#000000" stroke-miterlimit="10" x1="377.758" y1="140.476" x2="342.06" y2="140.476"/>
<polygon fill="#FFFFFF" stroke="#000000" stroke-miterlimit="10" points="320.783,383.528 320.783,373.937 313.01,373.937 
	310.178,370.427 303.533,377.624 308.516,383.534 "/>
<text transform="matrix(1 0 0 1 197.04 315.4072)" font-family="'MyriadPro-Regular'" font-size="256">1</text>
</svg>
