<?xml version="1.0" encoding="utf-8"?>
<!-- Generator: Adobe Illustrator 15.1.0, SVG Export Plug-In  -->
<!DOCTYPE svg PUBLIC "-//W3C//DTD SVG 1.1//EN" "http://www.w3.org/Graphics/SVG/1.1/DTD/svg11.dtd" [
	<!ENTITY ns_flows "http://ns.adobe.com/Flows/1.0/">
]>
<svg version="1.1"
	 xmlns="http://www.w3.org/2000/svg" xmlns:xlink="http://www.w3.org/1999/xlink" xmlns:a="http://ns.adobe.com/AdobeSVGViewerExtensions/3.0/"
	 x="0px" y="0px" width="1024px" height="768px" viewBox="-344.104 -226.131 1024 768"
	 overflow="visible" enable-background="new -344.104 -226.131 1024 768" xml:space="preserve">
<defs>
</defs>
<path fill="none" d="M277.586,349.552L65.441,331.613v-15.202l0.656-67.605h36.687l18.046-14.78l-0.515-96.141L88.939,109.1
	L0,108.493V0h92.72v36.22l290.835,0.442V0L649.01,0.007v319.632h-302.57v-24.961l-26.408-15.303l-23.876,0.761l-18.569,23.801
	V349.552z M71.441,326.099l200.145,16.924v-41.15l21.567-27.645l28.401-0.903l30.885,17.896v22.418h290.57V6H389.555v36.67
	L86.72,42.211V6H6v96.534l85.292,0.581l35.01,32.118l0.544,101.621l-21.918,17.951H72.04l-0.598,61.635V326.099z"/>
<rect x="6" y="6" fill="#9B1619" width="80.72" height="36.044"/>
</svg>
