<?xml version="1.0" encoding="utf-8"?>
<!-- Generator: Adobe Illustrator 15.1.0, SVG Export Plug-In  -->
<!DOCTYPE svg PUBLIC "-//W3C//DTD SVG 1.1//EN" "http://www.w3.org/Graphics/SVG/1.1/DTD/svg11.dtd" [
	<!ENTITY ns_flows "http://ns.adobe.com/Flows/1.0/">
]>
<svg version="1.1"
	 xmlns="http://www.w3.org/2000/svg" xmlns:xlink="http://www.w3.org/1999/xlink" xmlns:a="http://ns.adobe.com/AdobeSVGViewerExtensions/3.0/"
	 x="0px" y="0px" width="1024px" height="768px" viewBox="-344.104 -193.027 1024 768"
	 overflow="visible" enable-background="new -344.104 -193.027 1024 768" xml:space="preserve">
<defs>
</defs>
<path fill="none" d="M277.586,382.656L65.441,364.717v-15.202l0.656-67.605h36.687l18.046-14.78l-0.515-96.141l-31.376-28.785
	L0,141.597V33.104h86.72V0h172.565v69.577l124.27,0.189V33.104l265.455,0.007v319.632h-302.57v-24.961l-26.408-15.303l-23.876,0.761
	l-18.569,23.801V382.656z M71.441,359.203l200.145,16.924v-41.15l21.567-27.645l28.401-0.903l30.885,17.896v22.418h290.57V39.104
	H389.555v36.67l-136.27-0.207V6H92.72v33.104H6v96.534l85.292,0.581l35.01,32.118l0.544,101.621l-21.918,17.951H72.04l-0.598,61.635
	V359.203z"/>
<polygon fill="#9B1619" points="389.579,99.786 389.555,39.104 562.463,39.105 562.463,80.017 643.118,80.017 643.01,346.743 
	352.439,346.743 352.439,281.583 497.708,281.583 530.883,246 531.319,137.42 497.769,100 "/>
</svg>
