<?xml version="1.0" encoding="utf-8"?>
<!-- Generator: Adobe Illustrator 15.1.0, SVG Export Plug-In  -->
<!DOCTYPE svg PUBLIC "-//W3C//DTD SVG 1.1//EN" "http://www.w3.org/Graphics/SVG/1.1/DTD/svg11.dtd" [
	<!ENTITY ns_flows "http://ns.adobe.com/Flows/1.0/">
]>
<svg version="1.1"
	 xmlns="http://www.w3.org/2000/svg" xmlns:xlink="http://www.w3.org/1999/xlink" xmlns:a="http://ns.adobe.com/AdobeSVGViewerExtensions/3.0/"
	 x="0px" y="0px" width="1024px" height="768px" viewBox="-347.104 -90.547 1024 768"
	 overflow="visible" enable-background="new -347.104 -90.547 1024 768" xml:space="preserve">
<defs>
</defs>
<rect x="452.564" y="383.186" fill="#9B1619" width="39.193" height="66.037"/>
<polyline fill="none" points="643.01,0.328 643.01,452.223 346.439,452.223 346.439,428.534 317.793,411.934 291.654,412.766 
	271.586,438.489 271.586,452.223 271.586,481.872 65.441,464.44 65.441,451.995 66.068,387.389 100.855,387.389 120.838,371.024 
	120.309,272.143 87.115,241.691 0,241.098 0,138.584 86.72,138.584 86.72,174.799 383.555,175.25 383.555,138.584 548.387,138.584 
	548.387,181.379 618.629,181.379 619.027,138.725 573.91,138.75 573.752,0 645.939,0.098 "/>
</svg>
