<?xml version="1.0" encoding="utf-8"?>
<!-- Generator: Adobe Illustrator 15.1.0, SVG Export Plug-In  -->
<!DOCTYPE svg PUBLIC "-//W3C//DTD SVG 1.1//EN" "http://www.w3.org/Graphics/SVG/1.1/DTD/svg11.dtd" [
	<!ENTITY ns_flows "http://ns.adobe.com/Flows/1.0/">
]>
<svg version="1.1"
	 xmlns="http://www.w3.org/2000/svg" xmlns:xlink="http://www.w3.org/1999/xlink" xmlns:a="http://ns.adobe.com/AdobeSVGViewerExtensions/3.0/"
	 x="0px" y="0px" width="1024px" height="768px" viewBox="-344.104 -193.027 1024 768"
	 overflow="visible" enable-background="new -344.104 -193.027 1024 768" xml:space="preserve">
<defs>
</defs>
<polygon fill="#FFFFFF" points="277.586,382.656 65.441,364.717 65.441,349.515 66.097,281.909 102.784,281.909 120.83,267.129 
	120.315,170.988 88.939,142.204 0,141.597 0,33.104 86.72,33.104 86.72,0 259.285,0 259.285,69.577 383.555,69.766 383.555,33.104 
	649.01,33.111 649.01,352.743 346.439,352.743 346.439,327.782 320.031,312.479 296.155,313.24 277.586,337.041 "/>
<line fill="none" stroke="#000000" x1="313.188" y1="116.398" x2="313.251" y2="133.284"/>
<line fill="none" stroke="#000000" x1="321.435" y1="116.398" x2="321.497" y2="133.284"/>
<line fill="none" stroke="#000000" x1="329.681" y1="116.398" x2="329.743" y2="133.284"/>
<line fill="none" stroke="#000000" x1="337.927" y1="116.398" x2="337.989" y2="133.284"/>
<line fill="none" stroke="#000000" x1="346.173" y1="116.398" x2="346.235" y2="133.284"/>
<line fill="none" stroke="#000000" x1="354.419" y1="116.398" x2="354.481" y2="133.284"/>
<line fill="none" stroke="#000000" x1="362.665" y1="116.398" x2="362.728" y2="133.284"/>
<line fill="none" stroke="#000000" x1="370.911" y1="116.398" x2="370.974" y2="133.284"/>
<line fill="none" stroke="#000000" x1="379.157" y1="116.398" x2="379.22" y2="133.284"/>
<line fill="none" stroke="#000000" x1="422.937" y1="116.398" x2="422.999" y2="133.284"/>
<line fill="none" stroke="#000000" x1="431.183" y1="116.398" x2="431.245" y2="133.284"/>
<line fill="none" stroke="#000000" x1="439.429" y1="116.398" x2="439.491" y2="133.284"/>
<line fill="none" stroke="#000000" x1="447.675" y1="116.398" x2="447.737" y2="133.284"/>
<line fill="none" stroke="#000000" x1="455.921" y1="116.398" x2="455.983" y2="133.284"/>
<line fill="none" stroke="#000000" x1="464.167" y1="116.398" x2="464.229" y2="133.284"/>
<line fill="none" stroke="#000000" x1="472.413" y1="116.398" x2="472.476" y2="133.284"/>
<line fill="none" stroke="#000000" x1="480.659" y1="116.398" x2="480.722" y2="133.284"/>
<line fill="none" stroke="#000000" x1="488.905" y1="116.114" x2="488.968" y2="133"/>
<line fill="none" stroke="#000000" x1="286.852" y1="133.04" x2="515.439" y2="133.04"/>
<line fill="none" stroke="#000000" x1="312.701" y1="116.398" x2="387.568" y2="116.398"/>
<rect x="515.439" y="206.636" width="9.838" height="9.959"/>
<rect x="277.014" y="205.968" width="9.838" height="9.953"/>
<rect x="453.447" y="267.958" width="9.604" height="9.592"/>
<rect x="414.645" y="267.958" width="9.602" height="9.592"/>
<rect x="377.969" y="267.958" width="9.6" height="9.592"/>
<rect x="338.646" y="267.958" width="9.6" height="9.592"/>
<polygon points="525.277,237.993 515.498,237.589 515.498,240.653 513.189,243.782 519.928,250.612 519.928,250.608 
	525.277,244.534 "/>
<polygon points="282.367,249.935 289.1,243.108 286.793,239.974 286.791,236.909 277.014,237.325 277.014,243.864 277.018,243.866 
	282.363,249.94 "/>
<polygon points="492.617,264.448 489.781,267.958 482.012,267.958 482.012,277.55 494.281,277.546 499.262,271.644 "/>
<polygon points="320.283,277.544 320.283,267.952 312.51,267.952 309.678,264.442 303.033,271.64 308.016,277.55 "/>
<rect x="515.439" y="166.061" width="9.838" height="9.948"/>
<rect x="277.014" y="166.735" width="9.838" height="9.944"/>
<rect x="453.447" y="105.11" width="9.604" height="9.594"/>
<rect x="414.645" y="105.11" width="9.602" height="9.594"/>
<rect x="377.969" y="105.11" width="9.6" height="9.594"/>
<rect x="338.646" y="105.11" width="9.6" height="9.594"/>
<polygon points="525.277,144.663 525.277,138.122 519.928,132.049 519.922,132.053 513.195,138.875 515.498,142.012 
	515.498,145.073 "/>
<polygon points="277.014,145.333 286.793,145.743 286.793,142.684 289.1,139.551 282.365,132.717 282.361,132.723 277.014,138.795 
	"/>
<polygon points="492.617,118.211 499.256,111.012 494.275,105.106 482.012,105.106 482.012,114.704 489.781,114.704 "/>
<polygon points="320.283,114.81 320.283,105.212 308.016,105.214 303.033,111.121 309.674,118.314 309.674,118.312 312.51,114.81 
	"/>
<rect x="343.446" y="36.229" fill="#FFFFFF" stroke="#FFFFFF" stroke-width="6" width="31.796" height="31.796"/>
<line fill="none" stroke="#000000" stroke-width="1.5" x1="342.135" y1="69.064" x2="376.684" y2="34.492"/>
<line fill="none" stroke="#000000" stroke-width="1.5" x1="376.684" y1="69.064" x2="342.135" y2="34.492"/>
<line fill="none" stroke="#000000" stroke-width="1.5" x1="342.135" y1="69.74" x2="342.135" y2="34.042"/>
<line fill="none" stroke="#000000" stroke-width="1.5" x1="376.684" y1="69.74" x2="376.684" y2="34.042"/>
<line fill="none" stroke="#000000" stroke-width="1.5" x1="377.258" y1="34.492" x2="341.56" y2="34.492"/>
<line fill="none" stroke="#000000" stroke-width="0.8578" x1="563.122" y1="194.319" x2="533.638" y2="194.319"/>
<line fill="none" stroke="#000000" stroke-width="0.8578" x1="563.122" y1="185.672" x2="533.638" y2="185.672"/>
<line fill="none" stroke="#000000" stroke-width="0.8578" x1="563.122" y1="177.028" x2="533.638" y2="177.028"/>
<line fill="none" stroke="#000000" stroke-width="0.8578" x1="563.122" y1="168.381" x2="533.638" y2="168.381"/>
<line fill="none" stroke="#000000" stroke-width="0.8578" x1="563.122" y1="159.737" x2="533.638" y2="159.737"/>
<line fill="none" stroke="#000000" x1="533.251" y1="141.093" x2="533.251" y2="238.017"/>
<line fill="none" stroke="#000000" x1="563.122" y1="141.093" x2="563.122" y2="238.017"/>
<line fill="none" stroke="#000000" stroke-width="0.8378" x1="563.122" y1="151.059" x2="533.638" y2="151.059"/>
<line fill="none" stroke="#000000" stroke-width="0.8578" x1="563.122" y1="237.579" x2="533.638" y2="237.579"/>
<line fill="none" stroke="#000000" stroke-width="0.8578" x1="563.122" y1="228.933" x2="533.638" y2="228.933"/>
<line fill="none" stroke="#000000" stroke-width="0.8578" x1="563.122" y1="220.288" x2="533.638" y2="220.288"/>
<line fill="none" stroke="#000000" stroke-width="0.8578" x1="563.122" y1="211.642" x2="533.638" y2="211.642"/>
<line fill="none" stroke="#000000" stroke-width="0.8578" x1="563.122" y1="202.997" x2="533.638" y2="202.997"/>
<line fill="none" stroke="#000000" x1="414.645" y1="116.398" x2="489.068" y2="116.398"/>
<line fill="none" stroke="#000000" x1="313.188" y1="266.261" x2="313.251" y2="249.374"/>
<line fill="none" stroke="#000000" x1="321.435" y1="266.261" x2="321.497" y2="249.374"/>
<line fill="none" stroke="#000000" x1="329.681" y1="266.261" x2="329.743" y2="249.374"/>
<line fill="none" stroke="#000000" x1="337.927" y1="266.261" x2="337.989" y2="249.374"/>
<line fill="none" stroke="#000000" x1="346.173" y1="266.261" x2="346.235" y2="249.374"/>
<line fill="none" stroke="#000000" x1="354.419" y1="266.261" x2="354.481" y2="249.374"/>
<line fill="none" stroke="#000000" x1="362.665" y1="266.261" x2="362.728" y2="249.374"/>
<line fill="none" stroke="#000000" x1="370.911" y1="266.261" x2="370.974" y2="249.374"/>
<line fill="none" stroke="#000000" x1="379.157" y1="266.261" x2="379.22" y2="249.374"/>
<line fill="none" stroke="#000000" x1="422.937" y1="266.261" x2="422.999" y2="249.374"/>
<line fill="none" stroke="#000000" x1="431.183" y1="266.261" x2="431.245" y2="249.374"/>
<line fill="none" stroke="#000000" x1="439.429" y1="266.261" x2="439.491" y2="249.374"/>
<line fill="none" stroke="#000000" x1="447.675" y1="266.261" x2="447.737" y2="249.374"/>
<line fill="none" stroke="#000000" x1="455.921" y1="266.261" x2="455.983" y2="249.374"/>
<line fill="none" stroke="#000000" x1="464.167" y1="266.261" x2="464.229" y2="249.374"/>
<line fill="none" stroke="#000000" x1="472.413" y1="266.261" x2="472.476" y2="249.374"/>
<line fill="none" stroke="#000000" x1="480.659" y1="266.261" x2="480.722" y2="249.374"/>
<line fill="none" stroke="#000000" x1="488.905" y1="266.261" x2="488.968" y2="249.374"/>
<line fill="none" stroke="#000000" x1="286.852" y1="249.618" x2="515.439" y2="249.618"/>
<line fill="none" stroke="#000000" x1="312.701" y1="266.261" x2="387.568" y2="266.261"/>
<line fill="none" stroke="#000000" stroke-width="1.0024" x1="414.645" y1="266.261" x2="489.425" y2="266.261"/>
<line fill="none" stroke="#000000" stroke-width="5.5598" x1="570.701" y1="39.104" x2="570.701" y2="75.506"/>
<path fill="none" stroke="#000000" stroke-width="0.4534" d="M572.885,65.618c6.896,0,12.485,4.782,12.485,10.681"/>
<line fill="none" stroke="#000000" stroke-width="0.9481" x1="638.596" y1="39.105" x2="638.596" y2="75.119"/>
<line fill="none" stroke="#000000" stroke-width="0.9481" x1="629.949" y1="39.105" x2="629.949" y2="75.119"/>
<line fill="none" stroke="#000000" stroke-width="0.9481" x1="621.305" y1="39.105" x2="621.305" y2="75.119"/>
<line fill="none" stroke="#000000" stroke-width="0.9481" x1="612.658" y1="39.105" x2="612.658" y2="75.119"/>
<line fill="none" stroke="#000000" stroke-width="0.9481" x1="604.014" y1="39.105" x2="604.014" y2="75.119"/>
<line fill="none" stroke="#000000" stroke-width="1.2521" x1="585.37" y1="75.506" x2="643.01" y2="75.506"/>
<line fill="none" stroke="#000000" stroke-width="0.9259" x1="595.336" y1="39.105" x2="595.336" y2="75.119"/>
<line fill="none" stroke="#000000" stroke-width="1.0967" x1="595.336" y1="55.077" x2="643.01" y2="55.077"/>
<path fill="#DCDDDE" d="M404.777,173.569v-1h-82.106v-0.089l-0.998,0.002l0.062,37.647l0.998-0.002v-0.051h81.86v-1h-13.092v-17.122
	h13.209v-1h-13.209v-17.386H404.777z M364.562,190.956h-7.645v-17.386h7.645V190.956z M365.562,173.569h7.646v17.386h-7.646V173.569
	z M355.918,190.956h-7.646v-17.386h7.646V190.956z M347.271,190.956h-7.645v-17.386h7.645V190.956z M338.627,190.956h-7.678v-17.386
	h7.678V190.956z M338.627,191.956v17.122h-7.678v-17.122H338.627z M339.627,191.956h7.645v17.122h-7.645V191.956z M348.271,191.956
	h7.646v17.122h-7.646V191.956z M356.918,191.956h7.645v17.122h-7.645V191.956z M365.562,191.956h7.646v17.122h-7.646V191.956z
	 M374.209,191.956h7.645v17.122h-7.645V191.956z M374.209,190.956v-17.386h7.645v17.386H374.209z M329.949,173.569v17.386h-7.248
	l-0.028-17.386H329.949z M322.703,191.956h7.246v17.122h-7.218L322.703,191.956z M390.502,209.077h-7.648v-17.122h7.648V209.077z
	 M390.502,190.956h-7.648v-17.386h7.648V190.956z"/>
<polygon fill="#808285" points="253.285,75.704 92.701,75.458 92.72,137.529 91.292,136.215 6,135.638 6,39.104 92.72,39.104 
	92.72,6 253.285,6 "/>
</svg>
