<?xml version="1.0" encoding="utf-8"?>
<!-- Generator: Adobe Illustrator 15.1.0, SVG Export Plug-In  -->
<!DOCTYPE svg PUBLIC "-//W3C//DTD SVG 1.1//EN" "http://www.w3.org/Graphics/SVG/1.1/DTD/svg11.dtd" [
	<!ENTITY ns_flows "http://ns.adobe.com/Flows/1.0/">
]>
<svg version="1.1"
	 xmlns="http://www.w3.org/2000/svg" xmlns:xlink="http://www.w3.org/1999/xlink" xmlns:a="http://ns.adobe.com/AdobeSVGViewerExtensions/3.0/"
	 x="0px" y="0px" width="1024px" height="768px" viewBox="-409.545 -193.027 1024 768"
	 overflow="visible" enable-background="new -409.545 -193.027 1024 768" xml:space="preserve">
<defs>
</defs>
<polygon fill="#FFFFFF" points="212.145,382.656 0,364.717 0,349.515 0.656,281.909 37.342,281.909 55.394,267.126 54.867,10.799 
	54.832,0.002 193.844,0 193.844,69.577 318.113,69.766 318.113,33.104 583.568,33.111 583.568,352.743 280.998,352.743 
	280.998,327.782 254.59,312.479 230.714,313.24 212.145,337.041 "/>
<rect x="449.998" y="206.636" width="9.838" height="9.959"/>
<rect x="211.572" y="205.968" width="9.838" height="9.953"/>
<rect x="388.006" y="267.958" width="9.604" height="9.592"/>
<rect x="349.203" y="267.958" width="9.602" height="9.592"/>
<rect x="312.527" y="267.958" width="9.6" height="9.592"/>
<rect x="273.205" y="267.958" width="9.6" height="9.592"/>
<polygon points="459.836,237.993 450.057,237.589 450.057,240.653 447.748,243.782 454.486,250.612 454.486,250.608 
	459.836,244.534 "/>
<polygon points="216.926,249.935 223.658,243.108 221.352,239.974 221.35,236.909 211.572,237.325 211.572,243.864 211.576,243.866 
	216.922,249.94 "/>
<polygon points="427.176,264.448 424.34,267.958 416.57,267.958 416.57,277.55 428.84,277.546 433.82,271.644 "/>
<polygon points="254.842,277.544 254.842,267.952 247.068,267.952 244.236,264.442 237.592,271.64 242.574,277.55 "/>
<rect x="449.998" y="166.061" width="9.838" height="9.948"/>
<rect x="211.572" y="166.735" width="9.838" height="9.944"/>
<rect x="388.006" y="105.11" width="9.604" height="9.594"/>
<rect x="349.203" y="105.11" width="9.602" height="9.594"/>
<rect x="312.527" y="105.11" width="9.6" height="9.594"/>
<rect x="273.205" y="105.11" width="9.6" height="9.594"/>
<polygon points="459.836,144.663 459.836,138.122 454.486,132.049 454.48,132.053 447.754,138.875 450.057,142.012 450.057,145.073 
	"/>
<polygon points="211.572,145.333 221.352,145.743 221.352,142.684 223.658,139.551 216.924,132.717 216.92,132.723 211.572,138.795 
	"/>
<polygon points="427.176,118.211 433.814,111.012 428.834,105.106 416.57,105.106 416.57,114.704 424.34,114.704 "/>
<polygon points="254.842,114.81 254.842,105.212 242.574,105.214 237.592,111.121 244.232,118.314 244.232,118.312 247.068,114.81 
	"/>
<rect x="278.005" y="36.229" fill="#FFFFFF" stroke="#FFFFFF" stroke-width="6" width="31.796" height="31.796"/>
<line fill="none" stroke="#000000" stroke-width="1.5" x1="276.693" y1="69.064" x2="311.242" y2="34.492"/>
<line fill="none" stroke="#000000" stroke-width="1.5" x1="311.242" y1="69.064" x2="276.693" y2="34.492"/>
<line fill="none" stroke="#000000" stroke-width="1.5" x1="276.693" y1="69.74" x2="276.693" y2="34.042"/>
<line fill="none" stroke="#000000" stroke-width="1.5" x1="311.242" y1="69.74" x2="311.242" y2="34.042"/>
<line fill="none" stroke="#000000" stroke-width="1.5" x1="311.816" y1="34.492" x2="276.118" y2="34.492"/>
<line fill="none" stroke="#000000" stroke-width="0.8578" x1="497.681" y1="194.319" x2="468.196" y2="194.319"/>
<line fill="none" stroke="#000000" stroke-width="0.8578" x1="497.681" y1="185.672" x2="468.196" y2="185.672"/>
<line fill="none" stroke="#000000" stroke-width="0.8578" x1="497.681" y1="177.028" x2="468.196" y2="177.028"/>
<line fill="none" stroke="#000000" stroke-width="0.8578" x1="497.681" y1="168.381" x2="468.196" y2="168.381"/>
<line fill="none" stroke="#000000" stroke-width="0.8578" x1="497.681" y1="159.737" x2="468.196" y2="159.737"/>
<line fill="none" stroke="#000000" x1="467.81" y1="141.093" x2="467.81" y2="238.017"/>
<line fill="none" stroke="#000000" x1="497.681" y1="141.093" x2="497.681" y2="238.017"/>
<line fill="none" stroke="#000000" stroke-width="0.8378" x1="497.681" y1="151.059" x2="468.196" y2="151.059"/>
<line fill="none" stroke="#000000" stroke-width="0.8578" x1="497.681" y1="237.579" x2="468.196" y2="237.579"/>
<line fill="none" stroke="#000000" stroke-width="0.8578" x1="497.681" y1="228.933" x2="468.196" y2="228.933"/>
<line fill="none" stroke="#000000" stroke-width="0.8578" x1="497.681" y1="220.288" x2="468.196" y2="220.288"/>
<line fill="none" stroke="#000000" stroke-width="0.8578" x1="497.681" y1="211.642" x2="468.196" y2="211.642"/>
<line fill="none" stroke="#000000" stroke-width="0.8578" x1="497.681" y1="202.997" x2="468.196" y2="202.997"/>
<polygon fill="none" stroke="#D1D3D4" points="254.369,263.051 244.128,263.051 225.818,244.099 225.818,139.317 244.128,119.989 
	254.369,119.989 "/>
<polygon fill="none" stroke="#D1D3D4" points="416.57,263.051 426.812,263.051 445.121,244.099 445.121,139.317 426.812,119.989 
	416.57,119.989 "/>
<rect x="257.784" y="119.989" fill="none" stroke="#D1D3D4" stroke-width="1.2282" width="28.495" height="143.062"/>
<rect x="289.688" y="119.989" fill="none" stroke="#D1D3D4" stroke-width="1.2282" width="28.494" height="143.062"/>
<rect x="321.591" y="119.989" fill="none" stroke="#D1D3D4" stroke-width="1.2282" width="28.493" height="143.062"/>
<rect x="353.493" y="119.989" fill="none" stroke="#D1D3D4" stroke-width="1.2282" width="28.495" height="143.062"/>
<rect x="385.395" y="119.989" fill="none" stroke="#D1D3D4" stroke-width="1.2282" width="28.496" height="143.062"/>
<line fill="none" stroke="#D1D3D4" x1="240.26" y1="131.908" x2="254.535" y2="143.827"/>
<line fill="none" stroke="#D1D3D4" x1="240.26" y1="131.908" x2="225.984" y2="143.827"/>
<line fill="none" stroke="#D1D3D4" x1="225.984" y1="143.827" x2="254.535" y2="167.665"/>
<line fill="none" stroke="#D1D3D4" x1="254.535" y1="143.827" x2="225.984" y2="167.665"/>
<line fill="none" stroke="#D1D3D4" stroke-width="0.7126" x1="225.984" y1="167.665" x2="254.535" y2="191.502"/>
<line fill="none" stroke="#D1D3D4" stroke-width="0.7126" x1="254.535" y1="167.665" x2="225.984" y2="191.502"/>
<line fill="none" stroke="#D1D3D4" x1="225.984" y1="191.502" x2="254.535" y2="215.341"/>
<line fill="none" stroke="#D1D3D4" x1="254.535" y1="191.502" x2="225.984" y2="215.341"/>
<line fill="none" stroke="#D1D3D4" x1="225.984" y1="215.341" x2="254.535" y2="239.18"/>
<line fill="none" stroke="#D1D3D4" x1="254.535" y1="215.341" x2="225.984" y2="239.18"/>
<line fill="none" stroke="#D1D3D4" x1="225.984" y1="239.18" x2="240.094" y2="250.96"/>
<line fill="none" stroke="#D1D3D4" x1="254.535" y1="239.18" x2="240.094" y2="251.237"/>
<line fill="none" stroke="#D1D3D4" stroke-width="0.5" x1="254.369" y1="131.908" x2="232.638" y2="131.908"/>
<line fill="none" stroke="#D1D3D4" stroke-width="0.5" x1="254.369" y1="155.746" x2="225.984" y2="155.746"/>
<line fill="none" stroke="#D1D3D4" stroke-width="0.5" x1="254.369" y1="179.583" x2="225.984" y2="179.583"/>
<line fill="none" stroke="#D1D3D4" stroke-width="0.5" x1="254.369" y1="203.422" x2="225.984" y2="203.422"/>
<line fill="none" stroke="#D1D3D4" stroke-width="0.5" x1="254.369" y1="227.261" x2="225.984" y2="227.261"/>
<line fill="none" stroke="#D1D3D4" stroke-width="0.5" x1="254.369" y1="251.099" x2="232.715" y2="251.099"/>
<line fill="none" stroke="#D1D3D4" stroke-width="0.5" x1="240.094" y1="124.231" x2="240.094" y2="258.458"/>
<line fill="none" stroke="#D1D3D4" x1="430.846" y1="250.781" x2="445.121" y2="238.862"/>
<line fill="none" stroke="#D1D3D4" x1="430.846" y1="250.781" x2="416.57" y2="238.862"/>
<line fill="none" stroke="#D1D3D4" x1="416.57" y1="238.862" x2="445.121" y2="215.024"/>
<line fill="none" stroke="#D1D3D4" x1="445.121" y1="238.862" x2="416.57" y2="215.024"/>
<line fill="none" stroke="#D1D3D4" stroke-width="0.7126" x1="416.57" y1="215.024" x2="445.121" y2="191.187"/>
<line fill="none" stroke="#D1D3D4" stroke-width="0.7126" x1="445.121" y1="215.024" x2="416.57" y2="191.187"/>
<line fill="none" stroke="#D1D3D4" x1="416.57" y1="191.187" x2="445.121" y2="167.349"/>
<line fill="none" stroke="#D1D3D4" x1="445.121" y1="191.187" x2="416.57" y2="167.349"/>
<line fill="none" stroke="#D1D3D4" x1="416.57" y1="167.349" x2="445.121" y2="143.51"/>
<line fill="none" stroke="#D1D3D4" x1="445.121" y1="167.349" x2="416.57" y2="143.51"/>
<line fill="none" stroke="#D1D3D4" x1="416.57" y1="143.51" x2="430.68" y2="131.729"/>
<line fill="none" stroke="#D1D3D4" x1="445.121" y1="143.51" x2="430.68" y2="131.452"/>
<line fill="none" stroke="#D1D3D4" stroke-width="0.5" x1="438.302" y1="250.782" x2="416.57" y2="250.782"/>
<line fill="none" stroke="#D1D3D4" stroke-width="0.5" x1="444.955" y1="226.943" x2="416.57" y2="226.943"/>
<line fill="none" stroke="#D1D3D4" stroke-width="0.5" x1="444.955" y1="203.106" x2="416.57" y2="203.106"/>
<line fill="none" stroke="#D1D3D4" stroke-width="0.5" x1="444.955" y1="179.268" x2="416.57" y2="179.268"/>
<line fill="none" stroke="#D1D3D4" stroke-width="0.5" x1="444.955" y1="155.429" x2="416.57" y2="155.429"/>
<line fill="none" stroke="#D1D3D4" stroke-width="0.5" x1="438.225" y1="131.591" x2="416.57" y2="131.591"/>
<line fill="none" stroke="#D1D3D4" stroke-width="0.5" x1="430.68" y1="258.458" x2="430.68" y2="124.231"/>
<line fill="none" stroke="#D1D3D4" x1="257.756" y1="119.989" x2="286.307" y2="143.827"/>
<line fill="none" stroke="#D1D3D4" x1="286.307" y1="119.989" x2="257.756" y2="143.827"/>
<line fill="none" stroke="#D1D3D4" x1="257.756" y1="143.827" x2="286.307" y2="167.665"/>
<line fill="none" stroke="#D1D3D4" x1="286.307" y1="143.827" x2="257.756" y2="167.665"/>
<line fill="none" stroke="#D1D3D4" stroke-width="0.7126" x1="257.756" y1="167.665" x2="286.307" y2="191.502"/>
<line fill="none" stroke="#D1D3D4" stroke-width="0.7126" x1="286.307" y1="167.665" x2="257.756" y2="191.502"/>
<line fill="none" stroke="#D1D3D4" x1="257.756" y1="191.502" x2="286.307" y2="215.341"/>
<line fill="none" stroke="#D1D3D4" x1="286.307" y1="191.502" x2="257.756" y2="215.341"/>
<line fill="none" stroke="#D1D3D4" x1="257.756" y1="215.341" x2="286.307" y2="239.18"/>
<line fill="none" stroke="#D1D3D4" x1="286.307" y1="215.341" x2="257.756" y2="239.18"/>
<line fill="none" stroke="#D1D3D4" x1="257.756" y1="239.18" x2="286.307" y2="263.018"/>
<line fill="none" stroke="#D1D3D4" x1="286.307" y1="239.18" x2="257.756" y2="263.018"/>
<line fill="none" stroke="#D1D3D4" stroke-width="0.5" x1="286.141" y1="131.908" x2="257.756" y2="131.908"/>
<line fill="none" stroke="#D1D3D4" stroke-width="0.5" x1="286.141" y1="155.746" x2="257.756" y2="155.746"/>
<line fill="none" stroke="#D1D3D4" stroke-width="0.5" x1="286.141" y1="179.583" x2="257.756" y2="179.583"/>
<line fill="none" stroke="#D1D3D4" stroke-width="0.5" x1="286.141" y1="203.422" x2="257.756" y2="203.422"/>
<line fill="none" stroke="#D1D3D4" stroke-width="0.5" x1="286.141" y1="227.261" x2="257.756" y2="227.261"/>
<line fill="none" stroke="#D1D3D4" stroke-width="0.5" x1="286.141" y1="251.099" x2="257.756" y2="251.099"/>
<line fill="none" stroke="#D1D3D4" stroke-width="0.5" x1="271.865" y1="119.989" x2="271.865" y2="263.018"/>
<line fill="none" stroke="#D1D3D4" x1="289.659" y1="119.989" x2="318.21" y2="143.827"/>
<line fill="none" stroke="#D1D3D4" x1="318.21" y1="119.989" x2="289.659" y2="143.827"/>
<line fill="none" stroke="#D1D3D4" x1="289.659" y1="143.827" x2="318.21" y2="167.665"/>
<line fill="none" stroke="#D1D3D4" x1="318.21" y1="143.827" x2="289.659" y2="167.665"/>
<line fill="none" stroke="#D1D3D4" stroke-width="0.7126" x1="289.659" y1="167.665" x2="318.21" y2="191.502"/>
<line fill="none" stroke="#D1D3D4" stroke-width="0.7126" x1="318.21" y1="167.665" x2="289.659" y2="191.502"/>
<line fill="none" stroke="#D1D3D4" x1="289.659" y1="191.502" x2="318.21" y2="215.341"/>
<line fill="none" stroke="#D1D3D4" x1="318.21" y1="191.502" x2="289.659" y2="215.341"/>
<line fill="none" stroke="#D1D3D4" x1="289.659" y1="215.341" x2="318.21" y2="239.18"/>
<line fill="none" stroke="#D1D3D4" x1="318.21" y1="215.341" x2="289.659" y2="239.18"/>
<line fill="none" stroke="#D1D3D4" x1="289.659" y1="239.18" x2="318.21" y2="263.018"/>
<line fill="none" stroke="#D1D3D4" x1="318.21" y1="239.18" x2="289.659" y2="263.018"/>
<line fill="none" stroke="#D1D3D4" stroke-width="0.5" x1="318.044" y1="131.908" x2="289.659" y2="131.908"/>
<line fill="none" stroke="#D1D3D4" stroke-width="0.5" x1="318.044" y1="155.746" x2="289.659" y2="155.746"/>
<line fill="none" stroke="#D1D3D4" stroke-width="0.5" x1="318.044" y1="179.583" x2="289.659" y2="179.583"/>
<line fill="none" stroke="#D1D3D4" stroke-width="0.5" x1="318.044" y1="203.422" x2="289.659" y2="203.422"/>
<line fill="none" stroke="#D1D3D4" stroke-width="0.5" x1="318.044" y1="227.261" x2="289.659" y2="227.261"/>
<line fill="none" stroke="#D1D3D4" stroke-width="0.5" x1="318.044" y1="251.099" x2="289.659" y2="251.099"/>
<line fill="none" stroke="#D1D3D4" stroke-width="0.5" x1="303.769" y1="119.989" x2="303.769" y2="263.018"/>
<line fill="none" stroke="#D1D3D4" x1="321.562" y1="119.989" x2="350.113" y2="143.827"/>
<line fill="none" stroke="#D1D3D4" x1="350.113" y1="119.989" x2="321.562" y2="143.827"/>
<line fill="none" stroke="#D1D3D4" x1="321.562" y1="143.827" x2="350.113" y2="167.665"/>
<line fill="none" stroke="#D1D3D4" x1="350.113" y1="143.827" x2="321.562" y2="167.665"/>
<line fill="none" stroke="#D1D3D4" stroke-width="0.7126" x1="321.562" y1="167.665" x2="350.113" y2="191.502"/>
<line fill="none" stroke="#D1D3D4" stroke-width="0.7126" x1="350.113" y1="167.665" x2="321.562" y2="191.502"/>
<line fill="none" stroke="#D1D3D4" x1="321.562" y1="191.502" x2="350.113" y2="215.341"/>
<line fill="none" stroke="#D1D3D4" x1="350.113" y1="191.502" x2="321.562" y2="215.341"/>
<line fill="none" stroke="#D1D3D4" x1="321.562" y1="215.341" x2="350.113" y2="239.18"/>
<line fill="none" stroke="#D1D3D4" x1="350.113" y1="215.341" x2="321.562" y2="239.18"/>
<line fill="none" stroke="#D1D3D4" x1="321.562" y1="239.18" x2="350.113" y2="263.018"/>
<line fill="none" stroke="#D1D3D4" x1="350.113" y1="239.18" x2="321.562" y2="263.018"/>
<line fill="none" stroke="#D1D3D4" stroke-width="0.5" x1="349.947" y1="131.908" x2="321.562" y2="131.908"/>
<line fill="none" stroke="#D1D3D4" stroke-width="0.5" x1="349.947" y1="155.746" x2="321.562" y2="155.746"/>
<line fill="none" stroke="#D1D3D4" stroke-width="0.5" x1="349.947" y1="179.583" x2="321.562" y2="179.583"/>
<line fill="none" stroke="#D1D3D4" stroke-width="0.5" x1="349.947" y1="203.422" x2="321.562" y2="203.422"/>
<line fill="none" stroke="#D1D3D4" stroke-width="0.5" x1="349.947" y1="227.261" x2="321.562" y2="227.261"/>
<line fill="none" stroke="#D1D3D4" stroke-width="0.5" x1="349.947" y1="251.099" x2="321.562" y2="251.099"/>
<line fill="none" stroke="#D1D3D4" stroke-width="0.5" x1="335.672" y1="119.989" x2="335.672" y2="263.018"/>
<line fill="none" stroke="#D1D3D4" x1="353.466" y1="119.989" x2="382.017" y2="143.827"/>
<line fill="none" stroke="#D1D3D4" x1="382.017" y1="119.989" x2="353.466" y2="143.827"/>
<line fill="none" stroke="#D1D3D4" x1="353.466" y1="143.827" x2="382.017" y2="167.665"/>
<line fill="none" stroke="#D1D3D4" x1="382.017" y1="143.827" x2="353.466" y2="167.665"/>
<line fill="none" stroke="#D1D3D4" stroke-width="0.7126" x1="353.466" y1="167.665" x2="382.017" y2="191.502"/>
<line fill="none" stroke="#D1D3D4" stroke-width="0.7126" x1="382.017" y1="167.665" x2="353.466" y2="191.502"/>
<line fill="none" stroke="#D1D3D4" x1="353.466" y1="191.502" x2="382.017" y2="215.341"/>
<line fill="none" stroke="#D1D3D4" x1="382.017" y1="191.502" x2="353.466" y2="215.341"/>
<line fill="none" stroke="#D1D3D4" x1="353.466" y1="215.341" x2="382.017" y2="239.18"/>
<line fill="none" stroke="#D1D3D4" x1="382.017" y1="215.341" x2="353.466" y2="239.18"/>
<line fill="none" stroke="#D1D3D4" x1="353.466" y1="239.18" x2="382.017" y2="263.018"/>
<line fill="none" stroke="#D1D3D4" x1="382.017" y1="239.18" x2="353.466" y2="263.018"/>
<line fill="none" stroke="#D1D3D4" stroke-width="0.5" x1="381.851" y1="131.908" x2="353.466" y2="131.908"/>
<line fill="none" stroke="#D1D3D4" stroke-width="0.5" x1="381.851" y1="155.746" x2="353.466" y2="155.746"/>
<line fill="none" stroke="#D1D3D4" stroke-width="0.5" x1="381.851" y1="179.583" x2="353.466" y2="179.583"/>
<line fill="none" stroke="#D1D3D4" stroke-width="0.5" x1="381.851" y1="203.422" x2="353.466" y2="203.422"/>
<line fill="none" stroke="#D1D3D4" stroke-width="0.5" x1="381.851" y1="227.261" x2="353.466" y2="227.261"/>
<line fill="none" stroke="#D1D3D4" stroke-width="0.5" x1="381.851" y1="251.099" x2="353.466" y2="251.099"/>
<line fill="none" stroke="#D1D3D4" stroke-width="0.5" x1="367.575" y1="119.989" x2="367.575" y2="263.018"/>
<line fill="none" stroke="#D1D3D4" x1="385.369" y1="119.989" x2="413.92" y2="143.827"/>
<line fill="none" stroke="#D1D3D4" x1="413.92" y1="119.989" x2="385.369" y2="143.827"/>
<line fill="none" stroke="#D1D3D4" x1="385.369" y1="143.827" x2="413.92" y2="167.665"/>
<line fill="none" stroke="#D1D3D4" x1="413.92" y1="143.827" x2="385.369" y2="167.665"/>
<line fill="none" stroke="#D1D3D4" stroke-width="0.7126" x1="385.369" y1="167.665" x2="413.92" y2="191.502"/>
<line fill="none" stroke="#D1D3D4" stroke-width="0.7126" x1="413.92" y1="167.665" x2="385.369" y2="191.502"/>
<line fill="none" stroke="#D1D3D4" x1="385.369" y1="191.502" x2="413.92" y2="215.341"/>
<line fill="none" stroke="#D1D3D4" x1="413.92" y1="191.502" x2="385.369" y2="215.341"/>
<line fill="none" stroke="#D1D3D4" x1="385.369" y1="215.341" x2="413.92" y2="239.18"/>
<line fill="none" stroke="#D1D3D4" x1="413.92" y1="215.341" x2="385.369" y2="239.18"/>
<line fill="none" stroke="#D1D3D4" x1="385.369" y1="239.18" x2="413.92" y2="263.018"/>
<line fill="none" stroke="#D1D3D4" x1="413.92" y1="239.18" x2="385.369" y2="263.018"/>
<line fill="none" stroke="#D1D3D4" stroke-width="0.5" x1="413.754" y1="131.908" x2="385.369" y2="131.908"/>
<line fill="none" stroke="#D1D3D4" stroke-width="0.5" x1="413.754" y1="155.746" x2="385.369" y2="155.746"/>
<line fill="none" stroke="#D1D3D4" stroke-width="0.5" x1="413.754" y1="179.583" x2="385.369" y2="179.583"/>
<line fill="none" stroke="#D1D3D4" stroke-width="0.5" x1="413.754" y1="203.422" x2="385.369" y2="203.422"/>
<line fill="none" stroke="#D1D3D4" stroke-width="0.5" x1="413.754" y1="227.261" x2="385.369" y2="227.261"/>
<line fill="none" stroke="#D1D3D4" stroke-width="0.5" x1="413.754" y1="251.099" x2="385.369" y2="251.099"/>
<line fill="none" stroke="#D1D3D4" stroke-width="0.5" x1="399.479" y1="119.989" x2="399.479" y2="263.018"/>
<rect x="61.103" y="6.001" fill="#808285" width="45.157" height="238.82"/>
<line fill="none" stroke="#000000" stroke-width="5.5598" x1="505.26" y1="39.104" x2="505.26" y2="75.506"/>
<path fill="none" stroke="#000000" stroke-width="0.4534" d="M507.443,65.618c6.896,0,12.485,4.782,12.485,10.681"/>
<line fill="none" stroke="#000000" stroke-width="0.9481" x1="573.154" y1="39.105" x2="573.154" y2="75.119"/>
<line fill="none" stroke="#000000" stroke-width="0.9481" x1="564.508" y1="39.105" x2="564.508" y2="75.119"/>
<line fill="none" stroke="#000000" stroke-width="0.9481" x1="555.863" y1="39.105" x2="555.863" y2="75.119"/>
<line fill="none" stroke="#000000" stroke-width="0.9481" x1="547.217" y1="39.105" x2="547.217" y2="75.119"/>
<line fill="none" stroke="#000000" stroke-width="0.9481" x1="538.572" y1="39.105" x2="538.572" y2="75.119"/>
<line fill="none" stroke="#000000" stroke-width="1.2521" x1="519.929" y1="75.506" x2="577.568" y2="75.506"/>
<line fill="none" stroke="#000000" stroke-width="0.9259" x1="529.895" y1="39.105" x2="529.895" y2="75.119"/>
<line fill="none" stroke="#000000" stroke-width="1.0967" x1="529.895" y1="55.077" x2="577.568" y2="55.077"/>
</svg>
