<?xml version="1.0" encoding="utf-8"?>
<!-- Generator: Adobe Illustrator 15.1.0, SVG Export Plug-In  -->
<!DOCTYPE svg PUBLIC "-//W3C//DTD SVG 1.1//EN" "http://www.w3.org/Graphics/SVG/1.1/DTD/svg11.dtd" [
	<!ENTITY ns_flows "http://ns.adobe.com/Flows/1.0/">
]>
<svg version="1.1"
	 xmlns="http://www.w3.org/2000/svg" xmlns:xlink="http://www.w3.org/1999/xlink" xmlns:a="http://ns.adobe.com/AdobeSVGViewerExtensions/3.0/"
	 x="0px" y="0px" width="1024px" height="768px" viewBox="-409.545 -193.027 1024 768"
	 overflow="visible" enable-background="new -409.545 -193.027 1024 768" xml:space="preserve">
<defs>
</defs>
<path fill="none" d="M212.145,382.656L0,364.717v-15.202l0.656-67.605h36.687l18.051-14.783L54.867,10.799L54.832,0.002L193.844,0
	v69.577l124.27,0.189V33.104l265.455,0.007v319.632h-302.57v-24.961l-26.408-15.303l-23.876,0.761l-18.569,23.801V382.656z
	 M6,359.203l200.145,16.924v-41.15l21.567-27.645l28.401-0.903l30.885,17.896v22.418h290.57V39.104H324.113v36.67l-136.27-0.207V6
	L60.852,6.002l0.016,4.781l0.532,259.179l-21.914,17.947H6.598L6,349.544V359.203z"/>
<polygon fill="#9B1619" points="577.568,80.333 511.426,80.333 511.426,306.165 461.514,306.165 461.514,346.743 577.568,346.743 
	"/>
</svg>
